<svg version="1.1" xmlns="http://www.w3.org/2000/svg" xmlns:xlink="http://www.w3.org/1999/xlink" width="97" height="121" viewBox="0,0,205.21875,256"><defs><clipPath id="clip-1"><rect x="20" y="12.0305" width="60" height="59.939" id="clip0_105102_3273" fill="none"></rect></clipPath></defs><g fill="none" fill-rule="nonzero" stroke="none" stroke-width="1" stroke-linecap="butt" stroke-linejoin="miter" stroke-miterlimit="10" stroke-dasharray="" stroke-dashoffset="0" font-family="none" font-weight="none" font-size="none" text-anchor="none" style="mix-blend-mode: normal"><g transform="translate(-0.15031,-12.09177) scale(2.1157,2.1157)"><g clip-path="url(#clip-1)"><path d="M69.8288,37.245l-19.2134,10.9442c-0.3459,0.2034 -0.773,0.2034 -1.129,0l-19.2135,-10.9442c-0.7526,-0.4272 -0.7526,-1.5155 0,-1.9529l19.2135,-10.9442c0.3458,-0.2034 0.773,-0.2034 1.129,0l19.2134,10.9442c0.7527,0.4272 0.7527,1.5155 0,1.9529z" fill="#000000"></path><path d="M66.5028,40.927v9.0219c0,0.4068 -0.2136,0.773 -0.5696,0.9764l-15.3178,8.7269c-0.3458,0.2034 -0.773,0.2034 -1.129,0l-15.3179,-8.7269c-0.356,-0.2034 -0.5696,-0.5696 -0.5696,-0.9764v-9.0219l8.493,4.8313l7.3945,4.2211c0.3458,0.2034 0.773,0.2034 1.129,0l7.3945,-4.2211z" fill="#000000"></path><path d="M75.4535,26.0363l0.5289,-0.3661c0.6408,-0.4476 0.5594,-1.4138 -0.1424,-1.7495l-4.2109,-2.0037c-0.712,-0.3357 -1.5155,0.2238 -1.4545,1.0069l0.4069,4.6483c0.0712,0.773 0.9561,1.19 1.5968,0.7425l0.7527,-0.5187c6.6927,10.7814 4.8924,25.1432 -4.4651,33.8905c-9.205,8.6048 -23.3938,9.6524 -33.738,2.4919c-0.6916,-0.478 -1.6477,-0.3051 -2.1257,0.3865c-0.4781,0.6916 -0.3052,1.6477 0.3865,2.1258c5.1161,3.5396 11.0662,5.2789 17.0062,5.2789c7.4352,0 14.85,-2.7259 20.5561,-8.0557c10.4458,-9.7745 12.4597,-25.8552 4.9025,-37.8776z" fill="#000000"></path><path d="M67.1131,17.3095c-11.5138,-7.97425 -27.3097,-6.8046 -37.5623,2.7767c-10.7103,10.0187 -12.6327,26.0282 -4.6483,38.254l-0.7425,0.5085c-0.6408,0.4476 -0.5594,1.4138 0.1424,1.7495l4.2109,2.0037c0.712,0.3357 1.5155,-0.2238 1.4545,-1.0069l-0.4068,-4.6483c-0.0712,-0.773 -0.9561,-1.19 -1.5969,-0.7425l-0.5493,0.3865c-7.0995,-10.9747 -5.3805,-25.306 4.2211,-34.277c9.2049,-8.6048 23.3938,-9.6626 33.7379,-2.4919c0.6916,0.478 1.6477,0.3051 2.1258,-0.3865c0.478,-0.6917 0.3051,-1.6478 -0.3865,-2.1258z" fill="#000000"></path></g><path d="M0.66081,91.368c0,-1.1093 0.24,-2.096 0.72,-2.96c0.48,-0.8747 1.14667,-1.552 2,-2.032c0.864,-0.4907 1.84,-0.736 2.928,-0.736c1.33334,0 2.47467,0.352 3.424,1.056c0.94929,0.704 1.58399,1.664 1.90399,2.88h-3.00799c-0.224,-0.4693 -0.544,-0.8267 -0.96,-1.072c-0.40533,-0.2453 -0.86933,-0.368 -1.392,-0.368c-0.84266,0 -1.52533,0.2933 -2.048,0.88c-0.52266,0.5867 -0.784,1.3707 -0.784,2.352c0,0.9813 0.26134,1.7653 0.784,2.352c0.52267,0.5867 1.20534,0.88 2.048,0.88c0.52267,0 0.98667,-0.1227 1.392,-0.368c0.416,-0.2453 0.736,-0.6027 0.96,-1.072h3.00799c-0.32,1.216 -0.9547,2.176 -1.90399,2.88c-0.94933,0.6933 -2.09066,1.04 -3.424,1.04c-1.088,0 -2.064,-0.24 -2.928,-0.72c-0.85333,-0.4907 -1.52,-1.168 -2,-2.032c-0.48,-0.864 -0.72,-1.8507 -0.72,-2.96zM17.3763,97.128c-0.8747,0 -1.664,-0.1867 -2.368,-0.56c-0.6933,-0.3733 -1.2427,-0.9067 -1.648,-1.6c-0.3947,-0.6933 -0.592,-1.504 -0.592,-2.432c0,-0.9173 0.2027,-1.7227 0.608,-2.416c0.4053,-0.704 0.96,-1.2427 1.664,-1.616c0.704,-0.3733 1.4933,-0.56 2.368,-0.56c0.8747,0 1.664,0.1867 2.368,0.56c0.704,0.3733 1.2587,0.912 1.664,1.616c0.4053,0.6933 0.608,1.4987 0.608,2.416c0,0.9173 -0.208,1.728 -0.624,2.432c-0.4053,0.6933 -0.9653,1.2267 -1.68,1.6c-0.704,0.3733 -1.4933,0.56 -2.368,0.56zM17.3763,94.76c0.5227,0 0.9653,-0.192 1.328,-0.576c0.3733,-0.384 0.56,-0.9333 0.56,-1.648c0,-0.7147 -0.1813,-1.264 -0.544,-1.648c-0.352,-0.384 -0.7893,-0.576 -1.312,-0.576c-0.5333,0 -0.976,0.192 -1.328,0.576c-0.352,0.3733 -0.528,0.9227 -0.528,1.648c0,0.7147 0.1707,1.264 0.512,1.648c0.352,0.384 0.7893,0.576 1.312,0.576zM28.9398,87.976c1.0453,0 1.8773,0.3413 2.496,1.024c0.6293,0.672 0.944,1.6 0.944,2.784v5.216h-2.72v-4.848c0,-0.5973 -0.1547,-1.0613 -0.464,-1.392c-0.3093,-0.3307 -0.7253,-0.496 -1.248,-0.496c-0.5227,0 -0.9387,0.1653 -1.248,0.496c-0.3093,0.3307 -0.464,0.7947 -0.464,1.392v4.848h-2.736v-8.928h2.736v1.184c0.2773,-0.3947 0.6507,-0.704 1.12,-0.928c0.4693,-0.2347 0.9973,-0.352 1.584,-0.352zM39.2571,94.68v2.32h-1.392c-0.992,0 -1.7654,-0.24 -2.32,-0.72c-0.5547,-0.4907 -0.832,-1.2853 -0.832,-2.384v-3.552h-1.088v-2.272h1.088v-2.176h2.736v2.176h1.792v2.272h-1.792v3.584c0,0.2667 0.064,0.4587 0.192,0.576c0.128,0.1173 0.3413,0.176 0.64,0.176zM42.1571,87.144c-0.48,0 -0.8747,-0.1387 -1.184,-0.416c-0.2987,-0.288 -0.448,-0.64 -0.448,-1.056c0,-0.4267 0.1493,-0.7787 0.448,-1.056c0.3093,-0.288 0.704,-0.432 1.184,-0.432c0.4693,0 0.8533,0.144 1.152,0.432c0.3093,0.2773 0.464,0.6293 0.464,1.056c0,0.416 -0.1547,0.768 -0.464,1.056c-0.2987,0.2773 -0.6827,0.416 -1.152,0.416zM43.5171,88.072v8.928h-2.736v-8.928zM50.9398,87.976c1.0453,0 1.8773,0.3413 2.496,1.024c0.6293,0.672 0.944,1.6 0.944,2.784v5.216h-2.72v-4.848c0,-0.5973 -0.1547,-1.0613 -0.464,-1.392c-0.3093,-0.3307 -0.7253,-0.496 -1.248,-0.496c-0.5227,0 -0.9387,0.1653 -1.248,0.496c-0.3093,0.3307 -0.464,0.7947 -0.464,1.392v4.848h-2.736v-8.928h2.736v1.184c0.2773,-0.3947 0.6507,-0.704 1.12,-0.928c0.4693,-0.2347 0.9973,-0.352 1.584,-0.352zM65.0971,88.072v8.928h-2.736v-1.216c-0.2774,0.3947 -0.656,0.7147 -1.136,0.96c-0.4694,0.2347 -0.992,0.352 -1.568,0.352c-0.6827,0 -1.2854,-0.1493 -1.808,-0.448c-0.5227,-0.3093 -0.928,-0.752 -1.216,-1.328c-0.288,-0.576 -0.432,-1.2533 -0.432,-2.032v-5.216h2.72v4.848c0,0.5973 0.1546,1.0613 0.464,1.392c0.3093,0.3307 0.7253,0.496 1.248,0.496c0.5333,0 0.9546,-0.1653 1.264,-0.496c0.3093,-0.3307 0.464,-0.7947 0.464,-1.392v-4.848zM66.5183,92.52c0,-0.9173 0.1707,-1.7227 0.512,-2.416c0.352,-0.6933 0.8267,-1.2267 1.424,-1.6c0.5973,-0.3733 1.264,-0.56 2,-0.56c0.6293,0 1.1787,0.128 1.648,0.384c0.48,0.256 0.848,0.592 1.104,1.008v-1.264h2.736v8.928h-2.736v-1.264c-0.2667,0.416 -0.64,0.752 -1.12,1.008c-0.4693,0.256 -1.0187,0.384 -1.648,0.384c-0.7253,0 -1.3867,-0.1867 -1.984,-0.56c-0.5973,-0.384 -1.072,-0.9227 -1.424,-1.616c-0.3413,-0.704 -0.512,-1.5147 -0.512,-2.432zM73.2063,92.536c0,-0.6827 -0.192,-1.2213 -0.576,-1.616c-0.3733,-0.3947 -0.832,-0.592 -1.376,-0.592c-0.544,0 -1.008,0.1973 -1.392,0.592c-0.3733,0.384 -0.56,0.9173 -0.56,1.6c0,0.6827 0.1867,1.2267 0.56,1.632c0.384,0.3947 0.848,0.592 1.392,0.592c0.544,0 1.0027,-0.1973 1.376,-0.592c0.384,-0.3947 0.576,-0.9333 0.576,-1.616zM80.6577,85.16v11.84h-2.736v-11.84zM85.3764,85.16v11.84h-2.736v-11.84zM96.4792,88.072l-5.6,13.168h-2.944l2.048,-4.544l-3.632,-8.624h3.056l2.064,5.584l2.048,-5.584zM19.0171,104.16v11.84h-2.736v-11.84zM29.4158,111.392c0,0.256 -0.016,0.523 -0.048,0.8h-6.192c0.0427,0.555 0.2187,0.981 0.528,1.28c0.32,0.288 0.7093,0.432 1.168,0.432c0.6827,0 1.1573,-0.288 1.424,-0.864h2.912c-0.1493,0.587 -0.4213,1.115 -0.816,1.584c-0.384,0.469 -0.8693,0.837 -1.456,1.104c-0.5867,0.267 -1.2427,0.4 -1.968,0.4c-0.8747,0 -1.6533,-0.187 -2.336,-0.56c-0.6827,-0.373 -1.216,-0.907 -1.6,-1.6c-0.384,-0.693 -0.576,-1.504 -0.576,-2.432c0,-0.928 0.1867,-1.739 0.56,-2.432c0.384,-0.693 0.9173,-1.227 1.6,-1.6c0.6827,-0.373 1.4667,-0.56 2.352,-0.56c0.864,0 1.632,0.181 2.304,0.544c0.672,0.363 1.1947,0.88 1.568,1.552c0.384,0.672 0.576,1.456 0.576,2.352zM26.6158,110.672c0,-0.469 -0.16,-0.843 -0.48,-1.12c-0.32,-0.277 -0.72,-0.416 -1.2,-0.416c-0.4587,0 -0.848,0.133 -1.168,0.4c-0.3093,0.267 -0.5013,0.645 -0.576,1.136zM30.3152,111.52c0,-0.917 0.1707,-1.723 0.512,-2.416c0.352,-0.693 0.8267,-1.227 1.424,-1.6c0.5973,-0.373 1.264,-0.56 2,-0.56c0.6293,0 1.1787,0.128 1.648,0.384c0.48,0.256 0.848,0.592 1.104,1.008v-1.264h2.736v8.928h-2.736v-1.264c-0.2667,0.416 -0.64,0.752 -1.12,1.008c-0.4693,0.256 -1.0187,0.384 -1.648,0.384c-0.7253,0 -1.3867,-0.187 -1.984,-0.56c-0.5973,-0.384 -1.072,-0.923 -1.424,-1.616c-0.3413,-0.704 -0.512,-1.515 -0.512,-2.432zM37.0032,111.536c0,-0.683 -0.192,-1.221 -0.576,-1.616c-0.3733,-0.395 -0.832,-0.592 -1.376,-0.592c-0.544,0 -1.008,0.197 -1.392,0.592c-0.3733,0.384 -0.56,0.917 -0.56,1.6c0,0.683 0.1867,1.227 0.56,1.632c0.384,0.395 0.848,0.592 1.392,0.592c0.544,0 1.0027,-0.197 1.376,-0.592c0.384,-0.395 0.576,-0.933 0.576,-1.616zM44.4546,108.56c0.32,-0.491 0.72,-0.875 1.2,-1.152c0.48,-0.288 1.0133,-0.432 1.6,-0.432v2.896h-0.752c-0.6827,0 -1.1947,0.149 -1.536,0.448c-0.3414,0.288 -0.512,0.8 -0.512,1.536v4.144h-2.736v-8.928h2.736zM54.0023,106.976c1.0453,0 1.8773,0.341 2.496,1.024c0.6293,0.672 0.944,1.6 0.944,2.784v5.216h-2.72v-4.848c0,-0.597 -0.1547,-1.061 -0.464,-1.392c-0.3093,-0.331 -0.7253,-0.496 -1.248,-0.496c-0.5227,0 -0.9387,0.165 -1.248,0.496c-0.3093,0.331 -0.464,0.795 -0.464,1.392v4.848h-2.736v-8.928h2.736v1.184c0.2773,-0.395 0.6507,-0.704 1.12,-0.928c0.4693,-0.235 0.9973,-0.352 1.584,-0.352zM60.7196,106.144c-0.48,0 -0.8747,-0.139 -1.184,-0.416c-0.2987,-0.288 -0.448,-0.64 -0.448,-1.056c0,-0.427 0.1493,-0.779 0.448,-1.056c0.3093,-0.288 0.704,-0.432 1.184,-0.432c0.4693,0 0.8533,0.144 1.152,0.432c0.3093,0.277 0.464,0.629 0.464,1.056c0,0.416 -0.1547,0.768 -0.464,1.056c-0.2987,0.277 -0.6827,0.416 -1.152,0.416zM62.0796,107.072v8.928h-2.736v-8.928zM69.5023,106.976c1.0453,0 1.8773,0.341 2.496,1.024c0.6293,0.672 0.944,1.6 0.944,2.784v5.216h-2.72v-4.848c0,-0.597 -0.1547,-1.061 -0.464,-1.392c-0.3093,-0.331 -0.7253,-0.496 -1.248,-0.496c-0.5227,0 -0.9387,0.165 -1.248,0.496c-0.3093,0.331 -0.464,0.795 -0.464,1.392v4.848h-2.736v-8.928h2.736v1.184c0.2773,-0.395 0.6507,-0.704 1.12,-0.928c0.4693,-0.235 0.9973,-0.352 1.584,-0.352zM78.2356,106.944c0.6293,0 1.1786,0.128 1.648,0.384c0.48,0.256 0.848,0.592 1.104,1.008v-1.264h2.736v8.912c0,0.821 -0.1654,1.563 -0.496,2.224c-0.32,0.672 -0.816,1.205 -1.488,1.6c-0.6614,0.395 -1.488,0.592 -2.48,0.592c-1.3227,0 -2.3947,-0.315 -3.216,-0.944c-0.8214,-0.619 -1.2907,-1.461 -1.408,-2.528h2.704c0.0853,0.341 0.288,0.608 0.608,0.8c0.32,0.203 0.7146,0.304 1.184,0.304c0.5653,0 1.0133,-0.165 1.344,-0.496c0.3413,-0.32 0.512,-0.837 0.512,-1.552v-1.264c-0.2667,0.416 -0.6347,0.757 -1.104,1.024c-0.4694,0.256 -1.0187,0.384 -1.648,0.384c-0.736,0 -1.4027,-0.187 -2,-0.56c-0.5974,-0.384 -1.072,-0.923 -1.424,-1.616c-0.3414,-0.704 -0.512,-1.515 -0.512,-2.432c0,-0.917 0.1706,-1.723 0.512,-2.416c0.352,-0.693 0.8266,-1.227 1.424,-1.6c0.5973,-0.373 1.264,-0.56 2,-0.56zM80.9876,111.536c0,-0.683 -0.192,-1.221 -0.576,-1.616c-0.3734,-0.395 -0.832,-0.592 -1.376,-0.592c-0.544,0 -1.008,0.197 -1.392,0.592c-0.3734,0.384 -0.56,0.917 -0.56,1.6c0,0.683 0.1866,1.227 0.56,1.632c0.384,0.395 0.848,0.592 1.392,0.592c0.544,0 1.0026,-0.197 1.376,-0.592c0.384,-0.395 0.576,-0.933 0.576,-1.616z" fill="#000000"></path></g></g></svg>